<?xml version="1.0" encoding="UTF-8" standalone="no"?>
<!DOCTYPE svg PUBLIC "-//W3C//DTD SVG 1.1//EN"
 "http://www.w3.org/Graphics/SVG/1.1/DTD/svg11.dtd">
<!-- Generated by graphviz version 2.44.1 (20200629.0846)
 -->
<!-- Title: G Pages: 1 -->
<svg width="1660pt" height="487pt"
 viewBox="0.00 0.00 1660.00 487.00" xmlns="http://www.w3.org/2000/svg" xmlns:xlink="http://www.w3.org/1999/xlink">
<g id="graph0" class="graph" transform="scale(1 1) rotate(0) translate(36 451)">
<title>G</title>
<polygon fill="#f7f7f7" stroke="transparent" points="-36,36 -36,-451 1624,-451 1624,36 -36,36"/>
<!-- appability -->
<g id="node1" class="node">
<title>appability</title>
<polygon fill="none" stroke="black" points="100,-140 0,-140 0,-40 100,-40 100,-140"/>
<polygon fill="#d3d3d3" stroke="transparent" points="0,-103 0,-140 100,-140 100,-103 0,-103"/>
<polygon fill="none" stroke="black" points="0,-103 0,-140 100,-140 100,-103 0,-103"/>
<text text-anchor="start" x="35" y="-117.8" font-family="Helvetica Neue" font-size="14.00" fill="#333333">Ability</text>
</g>
<!-- roles -->
<g id="node2" class="node">
<title>roles</title>
<polygon fill="none" stroke="black" points="348,-301 248,-301 248,-201 348,-201 348,-301"/>
<polygon fill="#d3d3d3" stroke="transparent" points="248,-264 248,-301 348,-301 348,-264 248,-264"/>
<polygon fill="none" stroke="black" points="248,-264 248,-301 348,-301 348,-264 248,-264"/>
<text text-anchor="start" x="284.5" y="-278.8" font-family="Helvetica Neue" font-size="14.00" fill="#333333">Pivot</text>
</g>
<!-- appability&#45;&gt;roles -->
<g id="edge1" class="edge">
<title>appability:_id&#45;&gt;roles:ability_ids</title>
<path fill="none" stroke="#003049" stroke-width="1.8" d="M100.19,-122.19C140.33,-148.46 197.11,-185.63 239.38,-213.29"/>
<polygon fill="#003049" stroke="#003049" stroke-width="1.8" points="237.61,-216.31 247.89,-218.86 241.44,-210.46 237.61,-216.31"/>
<text text-anchor="middle" x="174" y="-174.8" font-family="Helvetica Neue" font-size="14.00"> </text>
<text text-anchor="middle" x="214.28" y="-156.54" font-family="Helvetica Neue" font-size="14.00">BelongsToMany</text>
<text text-anchor="middle" x="214.28" y="-141.54" font-family="Helvetica Neue" font-size="14.00">roles</text>
</g>
<!-- approle -->
<g id="node3" class="node">
<title>approle</title>
<polygon fill="none" stroke="black" points="596,-261 496,-261 496,-161 596,-161 596,-261"/>
<polygon fill="#d3d3d3" stroke="transparent" points="496,-224 496,-261 596,-261 596,-224 496,-224"/>
<polygon fill="none" stroke="black" points="496,-224 496,-261 596,-261 596,-224 496,-224"/>
<text text-anchor="start" x="533.5" y="-238.8" font-family="Helvetica Neue" font-size="14.00" fill="#333333">Role</text>
</g>
<!-- roles&#45;&gt;approle -->
<g id="edge2" class="edge">
<title>roles:role_ids&#45;&gt;approle:_id</title>
<path fill="none" stroke="#003049" stroke-width="1.8" d="M348.19,-243C387.83,-236.56 443.69,-227.47 485.78,-220.63"/>
<polygon fill="#003049" stroke="#003049" stroke-width="1.8" points="486.59,-224.04 495.89,-218.98 485.46,-217.13 486.59,-224.04"/>
<text text-anchor="middle" x="422" y="-234.8" font-family="Helvetica Neue" font-size="14.00"> </text>
<text text-anchor="middle" x="461.49" y="-250.62" font-family="Helvetica Neue" font-size="14.00">BelongsToMany</text>
<text text-anchor="middle" x="461.49" y="-235.62" font-family="Helvetica Neue" font-size="14.00">roles</text>
</g>
<!-- roles&#45;&gt;approle -->
<g id="edge13" class="edge">
<title>roles:role_ids&#45;&gt;approle:_id</title>
<path fill="none" stroke="#003049" stroke-width="1.8" d="M348.22,-230.26C381.71,-216.14 420,-200 420,-200 420,-200 424,-200 424,-200 424,-200 454.9,-202.81 485.47,-205.59"/>
<polygon fill="#003049" stroke="#003049" stroke-width="1.8" points="485.51,-209.11 495.78,-206.53 486.14,-202.13 485.51,-209.11"/>
<text text-anchor="middle" x="422" y="-203.8" font-family="Helvetica Neue" font-size="14.00"> </text>
<text text-anchor="middle" x="369.89" y="-191.16" font-family="Helvetica Neue" font-size="14.00">BelongsToMany</text>
<text text-anchor="middle" x="369.89" y="-176.16" font-family="Helvetica Neue" font-size="14.00">roles</text>
</g>
<!-- abilities -->
<g id="node7" class="node">
<title>abilities</title>
<polygon fill="none" stroke="black" points="844,-100 744,-100 744,0 844,0 844,-100"/>
<polygon fill="#d3d3d3" stroke="transparent" points="744,-63 744,-100 844,-100 844,-63 744,-63"/>
<polygon fill="none" stroke="black" points="744,-63 744,-100 844,-100 844,-63 744,-63"/>
<text text-anchor="start" x="780.5" y="-77.8" font-family="Helvetica Neue" font-size="14.00" fill="#333333">Pivot</text>
</g>
<!-- approle&#45;&gt;abilities -->
<g id="edge6" class="edge">
<title>approle:_id&#45;&gt;abilities:role_ids</title>
<path fill="none" stroke="#003049" stroke-width="1.8" d="M596.19,-178.81C636.33,-152.54 693.11,-115.37 735.38,-87.71"/>
<polygon fill="#003049" stroke="#003049" stroke-width="1.8" points="737.44,-90.54 743.89,-82.14 733.61,-84.69 737.44,-90.54"/>
<text text-anchor="middle" x="670" y="-134.8" font-family="Helvetica Neue" font-size="14.00"> </text>
<text text-anchor="middle" x="621.28" y="-122.06" font-family="Helvetica Neue" font-size="14.00">BelongsToMany</text>
<text text-anchor="middle" x="621.28" y="-107.06" font-family="Helvetica Neue" font-size="14.00">abilities</text>
</g>
<!-- users -->
<g id="node8" class="node">
<title>users</title>
<polygon fill="none" stroke="black" points="844,-280 744,-280 744,-180 844,-180 844,-280"/>
<polygon fill="#d3d3d3" stroke="transparent" points="744,-243 744,-280 844,-280 844,-243 744,-243"/>
<polygon fill="none" stroke="black" points="744,-243 744,-280 844,-280 844,-243 744,-243"/>
<text text-anchor="start" x="780.5" y="-257.8" font-family="Helvetica Neue" font-size="14.00" fill="#333333">Pivot</text>
</g>
<!-- approle&#45;&gt;users -->
<g id="edge8" class="edge">
<title>approle:_id&#45;&gt;users:role_ids</title>
<path fill="none" stroke="#003049" stroke-width="1.8" d="M596.19,-214.8C635.83,-217.86 691.69,-222.18 733.78,-225.43"/>
<polygon fill="#003049" stroke="#003049" stroke-width="1.8" points="733.65,-228.93 743.89,-226.21 734.19,-221.95 733.65,-228.93"/>
<text text-anchor="middle" x="670" y="-224.8" font-family="Helvetica Neue" font-size="14.00"> </text>
<text text-anchor="middle" x="709.49" y="-208.91" font-family="Helvetica Neue" font-size="14.00">BelongsToMany</text>
<text text-anchor="middle" x="709.49" y="-193.91" font-family="Helvetica Neue" font-size="14.00">users</text>
</g>
<!-- appcontact -->
<g id="node4" class="node">
<title>appcontact</title>
<polygon fill="none" stroke="black" points="1588,-328 1488,-328 1488,-228 1588,-228 1588,-328"/>
<polygon fill="#d3d3d3" stroke="transparent" points="1488,-291 1488,-328 1588,-328 1588,-291 1488,-291"/>
<polygon fill="none" stroke="black" points="1488,-291 1488,-328 1588,-328 1588,-291 1488,-291"/>
<text text-anchor="start" x="1516" y="-305.8" font-family="Helvetica Neue" font-size="14.00" fill="#333333">Contact</text>
</g>
<!-- appcontact&#45;&gt;appcontact -->
<g id="edge3" class="edge">
<title>appcontact:_id&#45;&gt;appcontact:contact_id</title>
<path fill="none" stroke="#fcbf49" stroke-width="1.8" d="M1517.25,-328.13C1510.5,-364.13 1517.41,-400 1538,-400 1556.66,-400 1564.08,-370.54 1560.29,-338.22"/>
<polygon fill="#fcbf49" stroke="#fcbf49" stroke-width="1.8" points="1560.25,-338.01 1563.2,-327.45 1559.5,-333.07 1558.75,-328.13 1558.75,-328.13 1558.75,-328.13 1559.5,-333.07 1554.3,-328.81 1560.25,-338.01 1560.25,-338.01"/>
<text text-anchor="middle" x="1538" y="-403.8" font-family="Helvetica Neue" font-size="14.00"> </text>
<text text-anchor="middle" x="1509.73" y="-384.41" font-family="Helvetica Neue" font-size="14.00">HasMany</text>
<text text-anchor="middle" x="1509.73" y="-369.41" font-family="Helvetica Neue" font-size="14.00">projects</text>
</g>
<!-- appproject -->
<g id="node5" class="node">
<title>appproject</title>
<polygon fill="none" stroke="black" points="1340,-408 1240,-408 1240,-308 1340,-308 1340,-408"/>
<polygon fill="#d3d3d3" stroke="transparent" points="1240,-371 1240,-408 1340,-408 1340,-371 1240,-371"/>
<polygon fill="none" stroke="black" points="1240,-371 1240,-408 1340,-408 1340,-371 1240,-371"/>
<text text-anchor="start" x="1271" y="-385.8" font-family="Helvetica Neue" font-size="14.00" fill="#333333">Project</text>
</g>
<!-- appproject&#45;&gt;appcontact -->
<g id="edge4" class="edge">
<title>appproject:_id&#45;&gt;appcontact:project_id</title>
<path fill="none" stroke="#fcbf49" stroke-width="1.8" d="M1340.19,-342C1380,-329.06 1436.16,-310.79 1478.31,-297.08"/>
<polygon fill="#fcbf49" stroke="#fcbf49" stroke-width="1.8" points="1478.38,-297.06 1489.29,-298.25 1483.14,-295.52 1487.89,-293.97 1487.89,-293.97 1487.89,-293.97 1483.14,-295.52 1486.5,-289.69 1478.38,-297.06 1478.38,-297.06"/>
<text text-anchor="middle" x="1414" y="-321.8" font-family="Helvetica Neue" font-size="14.00"> </text>
<text text-anchor="middle" x="1382.25" y="-308.34" font-family="Helvetica Neue" font-size="14.00">HasMany</text>
<text text-anchor="middle" x="1382.25" y="-293.34" font-family="Helvetica Neue" font-size="14.00">contacts</text>
</g>
<!-- appuser -->
<g id="node6" class="node">
<title>appuser</title>
<polygon fill="none" stroke="black" points="1092,-385 992,-385 992,-285 1092,-285 1092,-385"/>
<polygon fill="#d3d3d3" stroke="transparent" points="992,-348 992,-385 1092,-385 1092,-348 992,-348"/>
<polygon fill="none" stroke="black" points="992,-348 992,-385 1092,-385 1092,-348 992,-348"/>
<text text-anchor="start" x="1028.5" y="-362.8" font-family="Helvetica Neue" font-size="14.00" fill="#333333">User</text>
</g>
<!-- appproject&#45;&gt;appuser -->
<g id="edge5" class="edge">
<title>appproject:user_id&#45;&gt;appuser:_id</title>
<path fill="none" stroke="#f77f00" stroke-width="1.8" d="M1229.87,-344.32C1199.17,-337.21 1168,-330 1168,-330 1168,-330 1164,-330 1164,-330 1164,-330 1129.5,-331.43 1097.35,-332.75"/>
<polygon fill="#f77f00" stroke="#f77f00" stroke-width="1.8" points="1230.04,-344.36 1238.77,-351 1234.91,-345.48 1239.78,-346.61 1239.78,-346.61 1239.78,-346.61 1234.91,-345.48 1240.8,-342.23 1230.04,-344.36 1230.04,-344.36"/>
<polygon fill="#f77f00" stroke="#f77f00" stroke-width="1.8" points="1093.42,-337.92 1093.01,-327.93 1095.01,-327.85 1095.42,-337.84 1093.42,-337.92"/>
<polyline fill="none" stroke="#f77f00" stroke-width="1.8" points="1092.22,-332.97 1097.21,-332.76 "/>
<text text-anchor="middle" x="1166" y="-333.8" font-family="Helvetica Neue" font-size="14.00"> </text>
<text text-anchor="middle" x="1135.4" y="-318.8" font-family="Helvetica Neue" font-size="14.00">BelongsTo</text>
<text text-anchor="middle" x="1135.4" y="-303.8" font-family="Helvetica Neue" font-size="14.00">user</text>
</g>
<!-- appuser&#45;&gt;roles -->
<g id="edge12" class="edge">
<title>appuser:_id&#45;&gt;roles:user_ids</title>
<path fill="none" stroke="#003049" stroke-width="1.8" d="M991.96,-331.86C907.6,-326.47 744,-316 744,-316 744,-316 496,-297 496,-297 496,-297 416.07,-278.34 358.04,-264.78"/>
<polygon fill="#003049" stroke="#003049" stroke-width="1.8" points="358.74,-261.35 348.2,-262.49 357.15,-268.17 358.74,-261.35"/>
<text text-anchor="middle" x="670" y="-313.8" font-family="Helvetica Neue" font-size="14.00"> </text>
<text text-anchor="middle" x="628.74" y="-299.38" font-family="Helvetica Neue" font-size="14.00">BelongsToMany</text>
<text text-anchor="middle" x="628.74" y="-284.38" font-family="Helvetica Neue" font-size="14.00">roles</text>
</g>
<!-- appuser&#45;&gt;appcontact -->
<g id="edge11" class="edge">
<title>appuser:_id&#45;&gt;appcontact:user_id</title>
<path fill="none" stroke="#fcbf49" stroke-width="1.8" d="M1092.2,-315.52C1150.55,-292.42 1240,-257 1240,-257 1240,-257 1340,-257 1340,-257 1340,-257 1419.6,-265.49 1477.6,-271.67"/>
<polygon fill="#fcbf49" stroke="#fcbf49" stroke-width="1.8" points="1477.85,-271.69 1487.32,-277.23 1482.82,-272.22 1487.8,-272.75 1487.8,-272.75 1487.8,-272.75 1482.82,-272.22 1488.27,-268.28 1477.85,-271.69 1477.85,-271.69"/>
<text text-anchor="middle" x="1290" y="-260.8" font-family="Helvetica Neue" font-size="14.00"> </text>
<text text-anchor="middle" x="1252.71" y="-245.8" font-family="Helvetica Neue" font-size="14.00">HasMany</text>
<text text-anchor="middle" x="1252.71" y="-230.8" font-family="Helvetica Neue" font-size="14.00">contacts</text>
</g>
<!-- appuser&#45;&gt;appproject -->
<g id="edge10" class="edge">
<title>appuser:_id&#45;&gt;appproject:user_id</title>
<path fill="none" stroke="#fcbf49" stroke-width="1.8" d="M1092.22,-341.51C1125.71,-345.94 1164,-351 1164,-351 1164,-351 1197.33,-352.87 1229.57,-354.67"/>
<polygon fill="#fcbf49" stroke="#fcbf49" stroke-width="1.8" points="1229.97,-354.69 1239.7,-359.75 1234.96,-354.97 1239.96,-355.25 1239.96,-355.25 1239.96,-355.25 1234.96,-354.97 1240.21,-350.76 1229.97,-354.69 1229.97,-354.69"/>
<text text-anchor="middle" x="1166" y="-354.8" font-family="Helvetica Neue" font-size="14.00"> </text>
<text text-anchor="middle" x="1133.66" y="-369.36" font-family="Helvetica Neue" font-size="14.00">HasMany</text>
<text text-anchor="middle" x="1133.66" y="-354.36" font-family="Helvetica Neue" font-size="14.00">projects</text>
</g>
<!-- abilities&#45;&gt;appability -->
<g id="edge7" class="edge">
<title>abilities:ability_ids&#45;&gt;appability:_id</title>
<path fill="none" stroke="#003049" stroke-width="1.8" d="M743.76,-52.65C612.26,-59.74 253.18,-79.1 110.55,-86.79"/>
<polygon fill="#003049" stroke="#003049" stroke-width="1.8" points="110.06,-83.31 100.26,-87.34 110.43,-90.3 110.06,-83.31"/>
<text text-anchor="middle" x="422" y="-73.8" font-family="Helvetica Neue" font-size="14.00"> </text>
<text text-anchor="middle" x="382.66" y="-58.52" font-family="Helvetica Neue" font-size="14.00">BelongsToMany</text>
<text text-anchor="middle" x="382.66" y="-43.52" font-family="Helvetica Neue" font-size="14.00">abilities</text>
</g>
<!-- users&#45;&gt;appuser -->
<g id="edge9" class="edge">
<title>users:user_ids&#45;&gt;appuser:_id</title>
<path fill="none" stroke="#003049" stroke-width="1.8" d="M844.19,-251C884.08,-268.02 940.4,-292.06 982.58,-310.06"/>
<polygon fill="#003049" stroke="#003049" stroke-width="1.8" points="981.32,-313.33 991.89,-314.04 984.07,-306.9 981.32,-313.33"/>
<text text-anchor="middle" x="918" y="-286.8" font-family="Helvetica Neue" font-size="14.00"> </text>
<text text-anchor="middle" x="957.89" y="-269.33" font-family="Helvetica Neue" font-size="14.00">BelongsToMany</text>
<text text-anchor="middle" x="957.89" y="-254.33" font-family="Helvetica Neue" font-size="14.00">users</text>
</g>
<!-- apptask -->
<g id="node9" class="node">
<title>apptask</title>
<polygon fill="none" stroke="black" points="100,-312 0,-312 0,-212 100,-212 100,-312"/>
<polygon fill="#d3d3d3" stroke="transparent" points="0,-275 0,-312 100,-312 100,-275 0,-275"/>
<polygon fill="none" stroke="black" points="0,-275 0,-312 100,-312 100,-275 0,-275"/>
<text text-anchor="start" x="37.5" y="-289.8" font-family="Helvetica Neue" font-size="14.00" fill="#333333">Task</text>
</g>
</g>
</svg>
